<mxfile host="app.diagrams.net" modified="2023-12-02T07:25:57.502Z" agent="Mozilla/5.0 (Macintosh; Intel Mac OS X 10_15_7) AppleWebKit/537.36 (KHTML, like Gecko) Chrome/119.0.0.0 Safari/537.36" etag="Xz-pRFZWA9NYOsI1ceO2" version="22.1.5" type="github">
  <diagram name="Page-1" id="3d7lS149A-1Jxdq4fYxk">
    <mxGraphModel dx="984" dy="576" grid="1" gridSize="10" guides="1" tooltips="1" connect="1" arrows="1" fold="1" page="1" pageScale="1" pageWidth="850" pageHeight="1100" math="0" shadow="0">
      <root>
        <mxCell id="0" />
        <mxCell id="1" parent="0" />
        <mxCell id="GNus3fObEJb-22KMxjMQ-15" value="" style="group" vertex="1" connectable="0" parent="1">
          <mxGeometry x="170" y="70" width="210" height="400" as="geometry" />
        </mxCell>
        <mxCell id="GNus3fObEJb-22KMxjMQ-1" value="" style="rounded=0;whiteSpace=wrap;html=1;" vertex="1" parent="GNus3fObEJb-22KMxjMQ-15">
          <mxGeometry width="210" height="350" as="geometry" />
        </mxCell>
        <mxCell id="GNus3fObEJb-22KMxjMQ-2" value="Edge" style="text;html=1;strokeColor=none;fillColor=none;align=center;verticalAlign=middle;whiteSpace=wrap;rounded=0;" vertex="1" parent="GNus3fObEJb-22KMxjMQ-15">
          <mxGeometry x="75" y="370" width="60" height="30" as="geometry" />
        </mxCell>
        <mxCell id="GNus3fObEJb-22KMxjMQ-8" value="SLM" style="rounded=0;whiteSpace=wrap;html=1;fillColor=#dae8fc;strokeColor=#6c8ebf;" vertex="1" parent="GNus3fObEJb-22KMxjMQ-15">
          <mxGeometry x="20" y="20" width="170" height="60" as="geometry" />
        </mxCell>
        <mxCell id="GNus3fObEJb-22KMxjMQ-9" value="Local Commands" style="rounded=0;whiteSpace=wrap;html=1;fillColor=#ffe6cc;strokeColor=#d79b00;" vertex="1" parent="GNus3fObEJb-22KMxjMQ-15">
          <mxGeometry x="20" y="270" width="170" height="60" as="geometry" />
        </mxCell>
        <mxCell id="GNus3fObEJb-22KMxjMQ-11" value="" style="edgeStyle=orthogonalEdgeStyle;rounded=0;orthogonalLoop=1;jettySize=auto;html=1;endArrow=block;endFill=1;startArrow=none;startFill=0;" edge="1" parent="GNus3fObEJb-22KMxjMQ-15" source="GNus3fObEJb-22KMxjMQ-10" target="GNus3fObEJb-22KMxjMQ-8">
          <mxGeometry relative="1" as="geometry" />
        </mxCell>
        <mxCell id="GNus3fObEJb-22KMxjMQ-10" value="Orchestration Agent" style="rounded=0;whiteSpace=wrap;html=1;fillColor=#f8cecc;strokeColor=#b85450;" vertex="1" parent="GNus3fObEJb-22KMxjMQ-15">
          <mxGeometry x="20" y="140" width="170" height="60" as="geometry" />
        </mxCell>
        <mxCell id="GNus3fObEJb-22KMxjMQ-12" value="" style="edgeStyle=orthogonalEdgeStyle;rounded=0;orthogonalLoop=1;jettySize=auto;html=1;endArrow=block;endFill=1;startArrow=none;startFill=0;entryX=0.5;entryY=1;entryDx=0;entryDy=0;exitX=0.5;exitY=0;exitDx=0;exitDy=0;" edge="1" parent="GNus3fObEJb-22KMxjMQ-15" source="GNus3fObEJb-22KMxjMQ-9" target="GNus3fObEJb-22KMxjMQ-10">
          <mxGeometry relative="1" as="geometry">
            <mxPoint x="115" y="125" as="sourcePoint" />
            <mxPoint x="115" y="90" as="targetPoint" />
          </mxGeometry>
        </mxCell>
        <mxCell id="GNus3fObEJb-22KMxjMQ-16" value="" style="group" vertex="1" connectable="0" parent="1">
          <mxGeometry x="559" y="80" width="240" height="400" as="geometry" />
        </mxCell>
        <mxCell id="GNus3fObEJb-22KMxjMQ-3" value="" style="rounded=0;whiteSpace=wrap;html=1;" vertex="1" parent="GNus3fObEJb-22KMxjMQ-16">
          <mxGeometry width="240" height="350" as="geometry" />
        </mxCell>
        <mxCell id="GNus3fObEJb-22KMxjMQ-4" value="Cloud" style="text;html=1;strokeColor=none;fillColor=none;align=center;verticalAlign=middle;whiteSpace=wrap;rounded=0;" vertex="1" parent="GNus3fObEJb-22KMxjMQ-16">
          <mxGeometry x="90" y="370" width="60" height="30" as="geometry" />
        </mxCell>
        <mxCell id="GNus3fObEJb-22KMxjMQ-5" value="LLM" style="rounded=0;whiteSpace=wrap;html=1;fillColor=#dae8fc;strokeColor=#6c8ebf;" vertex="1" parent="GNus3fObEJb-22KMxjMQ-16">
          <mxGeometry x="40" y="40" width="170" height="100" as="geometry" />
        </mxCell>
        <mxCell id="GNus3fObEJb-22KMxjMQ-6" value="Remote Commands" style="rounded=0;whiteSpace=wrap;html=1;fillColor=#ffe6cc;strokeColor=#d79b00;" vertex="1" parent="GNus3fObEJb-22KMxjMQ-16">
          <mxGeometry x="40" y="200" width="170" height="100" as="geometry" />
        </mxCell>
        <mxCell id="GNus3fObEJb-22KMxjMQ-13" style="rounded=0;orthogonalLoop=1;jettySize=auto;html=1;exitX=1;exitY=0.5;exitDx=0;exitDy=0;entryX=0;entryY=0.5;entryDx=0;entryDy=0;" edge="1" parent="1" source="GNus3fObEJb-22KMxjMQ-10" target="GNus3fObEJb-22KMxjMQ-5">
          <mxGeometry relative="1" as="geometry" />
        </mxCell>
        <mxCell id="GNus3fObEJb-22KMxjMQ-14" style="rounded=0;orthogonalLoop=1;jettySize=auto;html=1;exitX=1;exitY=0.5;exitDx=0;exitDy=0;entryX=0;entryY=0.5;entryDx=0;entryDy=0;" edge="1" parent="1" source="GNus3fObEJb-22KMxjMQ-10" target="GNus3fObEJb-22KMxjMQ-6">
          <mxGeometry relative="1" as="geometry">
            <mxPoint x="379" y="260" as="sourcePoint" />
            <mxPoint x="609" y="150" as="targetPoint" />
          </mxGeometry>
        </mxCell>
        <mxCell id="GNus3fObEJb-22KMxjMQ-19" style="rounded=0;orthogonalLoop=1;jettySize=auto;html=1;startArrow=classic;startFill=1;" edge="1" parent="1" source="GNus3fObEJb-22KMxjMQ-18" target="GNus3fObEJb-22KMxjMQ-10">
          <mxGeometry relative="1" as="geometry" />
        </mxCell>
        <mxCell id="GNus3fObEJb-22KMxjMQ-18" value="" style="verticalLabelPosition=bottom;verticalAlign=top;html=1;shape=mxgraph.basic.smiley" vertex="1" parent="1">
          <mxGeometry x="20" y="213" width="50" height="55" as="geometry" />
        </mxCell>
      </root>
    </mxGraphModel>
  </diagram>
</mxfile>
